<?xml version="1.0" encoding="UTF-8" standalone="no"?>
<svg
   xmlns:dc="http://purl.org/dc/elements/1.1/"
   xmlns:cc="http://creativecommons.org/ns#"
   xmlns:rdf="http://www.w3.org/1999/02/22-rdf-syntax-ns#"
   xmlns:svg="http://www.w3.org/2000/svg"
   xmlns="http://www.w3.org/2000/svg"
   xmlns:sodipodi="http://sodipodi.sourceforge.net/DTD/sodipodi-0.dtd"
   xmlns:inkscape="http://www.inkscape.org/namespaces/inkscape"
   height="100"
   version="1.1"
   width="34.863632"
   id="svg18"
   sodipodi:docname="btnon.svg"
   inkscape:version="0.92.2 (5c3e80d, 2017-08-06)">
  <metadata
     id="metadata24">
    <rdf:RDF>
      <cc:Work
         rdf:about="">
        <dc:format>image/svg+xml</dc:format>
        <dc:type
           rdf:resource="http://purl.org/dc/dcmitype/StillImage" />
        <dc:title></dc:title>
      </cc:Work>
    </rdf:RDF>
  </metadata>
  <defs
     id="defs22" />
  <sodipodi:namedview
     pagecolor="#ffffff"
     bordercolor="#666666"
     borderopacity="1"
     objecttolerance="10"
     gridtolerance="10"
     guidetolerance="10"
     inkscape:pageopacity="0"
     inkscape:pageshadow="2"
     inkscape:window-width="1280"
     inkscape:window-height="961"
     id="namedview20"
     showgrid="false"
     inkscape:zoom="2.4583333"
     inkscape:cx="-49.032352"
     inkscape:cy="76.298422"
     inkscape:window-x="-8"
     inkscape:window-y="-8"
     inkscape:window-maximized="1"
     inkscape:current-layer="svg18" />
  <g
     id="RenderLayer_LineSet"
     inkscape:label="RenderLayer_LineSet"
     transform="matrix(0.14607219,0,0,0.14607219,-38.691751,-8.4226685)">
    <g
       id="strokes"
       inkscape:groupmode="layer"
       inkscape:label="strokes">
      <path
         d="m 318.286,131.535 5.713,-5.712 -7.072,-7.071 -7.071,-7.071 -7.071,-7.071 -7.071,-7.071 -7.071,-7.072 -7.071,-7.071 -4.766,-4.766 -5.713,5.712 -5.712,5.713 7.071,7.071 7.071,7.071 7.071,7.071 7.071,7.071 7.071,7.071 7.071,7.071 4.767,4.767 5.712,-5.713"
         id="path2"
         inkscape:connector-curvature="0"
         style="fill:none;stroke:#000000;stroke-width:1;stroke-linecap:butt;stroke-linejoin:round;stroke-opacity:1" />
      <path
         d="m 449.85,131.535 5.713,5.713 7.071,-7.071 7.071,-7.071 7.071,-7.071 7.071,-7.071 7.071,-7.072 7.071,-7.071 4.767,-4.766 -5.713,-5.713 -5.712,-5.712 -7.071,7.071 -7.071,7.071 -7.071,7.071 -7.071,7.071 -7.071,7.071 -7.071,7.071 -4.767,4.767 5.712,5.712"
         id="path4"
         inkscape:connector-curvature="0"
         style="fill:none;stroke:#000000;stroke-width:1;stroke-linecap:butt;stroke-linejoin:round;stroke-opacity:1" />
      <path
         d="m 381.304,124.902 h 8.079 v -10 -10 -10 -10 -10 -10 -6.741 h -8.079 -8.078 v 10 10 10 10 10 10 6.741 h 8.078"
         id="path6"
         inkscape:connector-curvature="0"
         style="fill:none;stroke:#000000;stroke-width:1;stroke-linecap:butt;stroke-linejoin:round;stroke-opacity:1" />
      <path
         d="m 387.812,443.933 -4.179,0.411 -4.017,1.219 -3.703,1.979 -3.246,2.664 -2.664,3.246 -1.979,3.703 -1.219,4.018 -0.411,4.178 0.411,4.179 1.219,4.018 1.979,3.703 2.664,3.245 3.246,2.664 3.703,1.979 4.017,1.219 4.179,0.412 4.179,-0.412 4.018,-1.219 3.702,-1.979 3.246,-2.664 2.664,-3.245 1.979,-3.703 1.219,-4.018 0.411,-4.179 -0.411,-4.179 -1.219,-4.017 -1.979,-3.703 -2.664,-3.246 -3.246,-2.664 -3.703,-1.979 -4.017,-1.219 -4.179,-0.411"
         id="path8"
         inkscape:connector-curvature="0"
         style="fill:none;stroke:#000000;stroke-width:1;stroke-linecap:butt;stroke-linejoin:round;stroke-opacity:1" />
      <path
         d="m 267.265,209.751 h 10 10 10 10 10 10 10 10 10 10 10 10 10 10 10 10 10 10 10 10 10 10 10 5.79 v -10 -10 -10 -9.382 h -10 -10 -10 -10 -10 -10 -10 -10 -10 -10 -10 -10 -10 -10 -10 -10 -10 -10 -10 -10 -10 -10 -10 -5.79 v 10 10 10 9.382"
         id="path10"
         inkscape:connector-curvature="0"
         style="fill:none;stroke:#000000;stroke-width:1;stroke-linecap:butt;stroke-linejoin:round;stroke-opacity:1" />
      <path
         d="m 503.055,291.716 v -10 -10 -10 -10 -10 -9.486 h -10 -10 -10 -10 -10 -10 -10 -10 -10 -10 -10 -10 -10 -10 -10 -10 -10 -10 -10 -10 -10 -10 -10 -5.79 v 10 10 10 10 10 9.486 l 5.579,8.299 5.579,8.3 5.579,8.299 5.579,8.299 5.579,8.299 5.578,8.299 5.579,8.299 5.579,8.299 5.579,8.3 5.579,8.299 1.39,2.067 v 10 10 10 10 10 10 10 10 10 10 10 10 10 10 10 10 10 10 10 10 10 10 10 10 10 10 10 10 10 10 10 10 10 10 10 4.153 l 9.535,3.014 9.535,3.015 9.534,3.014 5.641,1.783 h 10 10 10 10 10 2.942 l 9.535,-3.014 9.535,-3.015 9.535,-3.014 5.64,-1.783 v -10 -10 -10 -10 -10 -10 -10 -10 -10 -10 -10 -10 -10 -10 -10 -10 -10 -10 -10 -10 -10 -10 -10 -10 -10 -10 -10 -10 -10 -10 -10 -10 -10 -10 -10 -4.153 l 5.579,-8.299 5.579,-8.299 5.579,-8.3 5.578,-8.299 5.579,-8.299 5.579,-8.299 5.579,-8.299 5.579,-8.299 5.579,-8.299 5.579,-8.3 1.39,-2.067"
         id="path12"
         inkscape:connector-curvature="0"
         style="fill:none;stroke:#000000;stroke-width:1;stroke-linecap:butt;stroke-linejoin:round;stroke-opacity:1" />
      <path
         d="m 387.49,438.68 -5.05,0.497 -4.857,1.473 -4.476,2.393 -3.923,3.22 -3.22,3.923 -2.392,4.476 -1.473,4.856 -0.167,9.999 -0.166,9.999 -0.165,9.925 0.175,9.998 0.175,9.999 0.148,8.447 1.473,4.856 2.392,4.476 3.22,3.923 3.923,3.22 4.476,2.392 4.857,1.474 5.05,0.497 5.051,-0.497 4.857,-1.474 4.476,-2.392 3.923,-3.22 3.22,-3.923 2.392,-4.476 1.473,-4.856 0.175,-9.999 0.175,-9.998 0.148,-8.447 -0.167,-9.999 -0.166,-9.998 -0.165,-9.926 -1.473,-4.856 -2.392,-4.476 -3.22,-3.923 -3.923,-3.22 -4.476,-2.393 -4.857,-1.473 -5.051,-0.497"
         id="path14"
         inkscape:connector-curvature="0"
         style="fill:none;stroke:#000000;stroke-width:1;stroke-linecap:butt;stroke-linejoin:round;stroke-opacity:1" />
    </g>
  </g>
  <path
     style="fill:#00abff;fill-opacity:1;stroke-width:0.15668842"
     d="m 16.808973,62.299312 c -0.258536,-0.11328 -0.697636,-0.43957 -0.975778,-0.72511 -1.40685,-1.44423 -0.970286,-3.70246 0.900545,-4.65828 0.80888,-0.41326 1.505795,-0.44645 2.310937,-0.11004 2.508615,1.04817 2.508615,4.42097 0,5.46914 -0.701862,0.29325 -1.599562,0.30301 -2.235704,0.0243 z"
     id="path15"
     inkscape:connector-curvature="0" />
  <path
     style="fill:#00abff;fill-opacity:1;stroke-width:0.15668842"
     d="m 11.324878,99.029932 -2.3503257,-0.75341 -0.078344,-25.90978 -0.078345,-25.90977 -4.1855224,-6.1892 -4.18552252,-6.18919 -0.005892,-4.19141 -0.005892,-4.19142 H 17.514071 34.593108 l -0.004,4.26976 -0.004,4.26976 -4.148264,6.16531 -4.148263,6.16532 v 25.83157 25.83156 l -2.48585,0.79017 -2.485847,0.79017 -3.820861,-0.013 -3.82086,-0.013 -2.350326,-0.75341 z m 8.62898,-29.23237 c 0.471544,-0.29153 0.944938,-0.76496 1.236568,-1.23666 0.455871,-0.73736 0.475925,-0.84845 0.568896,-3.15162 0.053,-1.31301 0.05343,-3.51122 9.26e-4,-4.88488 -0.09124,-2.38814 -0.114398,-2.52626 -0.528603,-3.15216 -1.253535,-1.89423 -3.804549,-2.40331 -5.583926,-1.11433 -0.688084,0.49844 -1.307929,1.36993 -1.485514,2.0886 -0.06133,0.24821 -0.111515,2.37467 -0.111515,4.72546 0,3.54402 0.04236,4.37556 0.247985,4.86768 0.400497,0.95853 0.957502,1.56841 1.839964,2.01465 0.710104,0.35908 0.98418,0.41094 1.939074,0.36691 0.909324,-0.0419 1.251378,-0.1374 1.876118,-0.52365 z"
     id="path825"
     inkscape:connector-curvature="0" />
  <path
     style="fill:#00abff;fill-opacity:1;stroke-width:0.15668842"
     d="m 0.4350338,19.349872 v -2.74205 H 17.514071 34.593108 v 2.74205 2.74205 H 17.514071 0.4350338 Z"
     id="path827"
     inkscape:connector-curvature="0" />
  <path
     style="fill:#00abff;fill-opacity:1;stroke-width:0.15668842"
     d="M 3.6023224,8.1018555 0.27375851,4.7705885 1.0236802,4.0319435 1.7736021,3.2932985 5.1021658,6.6245645 8.4307297,9.9558315 7.6808081,10.694476 6.930886,11.433121 Z"
     id="path829"
     inkscape:connector-curvature="0" />
  <path
     style="fill:#00abff;fill-opacity:1;stroke-width:0.15668842"
     d="M 15.947186,4.9345395 V 0.15554345 h 1.018475 1.018475 v 4.77899605 4.778997 h -1.018475 -1.018475 z"
     id="path831"
     inkscape:connector-curvature="0" />
  <path
     style="fill:#00abff;fill-opacity:1;stroke-width:0.15668842"
     d="m 27.106949,10.610868 -0.657116,-0.6695525 3.331335,-3.328631 3.331335,-3.328632 0.697133,0.710327 0.697134,0.710327 -3.285061,3.287857 c -1.806783,1.808321 -3.323892,3.2878565 -3.371352,3.2878565 -0.04746,0 -0.381994,-0.301299 -0.743408,-0.669552 z"
     id="path833"
     inkscape:connector-curvature="0" />
</svg>
