<?xml version="1.0" encoding="UTF-8" standalone="no"?>
<svg
   xmlns:dc="http://purl.org/dc/elements/1.1/"
   xmlns:cc="http://creativecommons.org/ns#"
   xmlns:rdf="http://www.w3.org/1999/02/22-rdf-syntax-ns#"
   xmlns:svg="http://www.w3.org/2000/svg"
   xmlns="http://www.w3.org/2000/svg"
   xmlns:sodipodi="http://sodipodi.sourceforge.net/DTD/sodipodi-0.dtd"
   xmlns:inkscape="http://www.inkscape.org/namespaces/inkscape"
   height="100"
   version="1.1"
   width="34.863632"
   id="svg19"
   sodipodi:docname="btnoff.svg"
   inkscape:version="0.92.2 (5c3e80d, 2017-08-06)">
  <metadata
     id="metadata25">
    <rdf:RDF>
      <cc:Work
         rdf:about="">
        <dc:format>image/svg+xml</dc:format>
        <dc:type
           rdf:resource="http://purl.org/dc/dcmitype/StillImage" />
        <dc:title></dc:title>
      </cc:Work>
    </rdf:RDF>
  </metadata>
  <defs
     id="defs23" />
  <sodipodi:namedview
     pagecolor="#ffffff"
     bordercolor="#666666"
     borderopacity="1"
     objecttolerance="10"
     gridtolerance="10"
     guidetolerance="10"
     inkscape:pageopacity="0"
     inkscape:pageshadow="2"
     inkscape:window-width="1280"
     inkscape:window-height="961"
     id="namedview21"
     showgrid="false"
     inkscape:zoom="2.4583333"
     inkscape:cx="-7.8052923"
     inkscape:cy="128.86008"
     inkscape:window-x="-8"
     inkscape:window-y="-8"
     inkscape:window-maximized="1"
     inkscape:current-layer="svg19" />
  <g
     id="RenderLayer_LineSet"
     inkscape:label="RenderLayer_LineSet"
     transform="matrix(0.14607219,0,0,0.14607219,-38.691751,-8.4226685)">
    <g
       id="frame_0001"
       inkscape:label="frame_0001">
      <g
         id="strokes"
         inkscape:groupmode="layer"
         inkscape:label="strokes">
        <path
           d="m 318.286,131.535 5.713,-5.712 -7.072,-7.071 -7.071,-7.071 -7.071,-7.071 -7.071,-7.071 -7.071,-7.072 -7.071,-7.071 -4.766,-4.766 -5.713,5.712 -5.712,5.713 7.071,7.071 7.071,7.071 7.071,7.071 7.071,7.071 7.071,7.071 7.071,7.071 4.767,4.767 5.712,-5.713"
           id="path2"
           inkscape:connector-curvature="0"
           style="fill:none;stroke:#000000;stroke-width:1;stroke-linecap:butt;stroke-linejoin:round;stroke-opacity:1" />
        <path
           d="m 449.85,131.535 5.713,5.713 7.071,-7.071 7.071,-7.071 7.071,-7.071 7.071,-7.071 7.071,-7.072 7.071,-7.071 4.767,-4.766 -5.713,-5.713 -5.712,-5.712 -7.071,7.071 -7.071,7.071 -7.071,7.071 -7.071,7.071 -7.071,7.071 -7.071,7.071 -4.767,4.767 5.712,5.712"
           id="path4"
           inkscape:connector-curvature="0"
           style="fill:none;stroke:#000000;stroke-width:1;stroke-linecap:butt;stroke-linejoin:round;stroke-opacity:1" />
        <path
           d="m 381.304,124.902 h 8.079 v -10 -10 -10 -10 -10 -10 -6.741 h -8.079 -8.078 v 10 10 10 10 10 10 6.741 h 8.078"
           id="path6"
           inkscape:connector-curvature="0"
           style="fill:none;stroke:#000000;stroke-width:1;stroke-linecap:butt;stroke-linejoin:round;stroke-opacity:1" />
        <path
           d="m 387.812,490.69 -4.179,0.411 -4.017,1.219 -3.703,1.98 -3.246,2.663 -2.664,3.246 -1.979,3.703 -1.219,4.018 -0.411,4.178 0.411,4.179 1.219,4.018 1.979,3.703 2.664,3.245 3.246,2.664 3.703,1.979 4.017,1.219 4.179,0.412 4.179,-0.412 4.018,-1.219 3.702,-1.979 3.246,-2.664 2.664,-3.245 1.979,-3.703 1.219,-4.018 0.411,-4.179 -0.411,-4.178 -1.219,-4.018 -1.979,-3.703 -2.664,-3.246 -3.246,-2.663 -3.703,-1.98 -4.017,-1.219 -4.179,-0.411"
           id="path8"
           inkscape:connector-curvature="0"
           style="fill:none;stroke:#000000;stroke-width:1;stroke-linecap:butt;stroke-linejoin:round;stroke-opacity:1" />
        <path
           d="m 267.265,209.751 h 10 10 10 10 10 10 10 10 10 10 10 10 10 10 10 10 10 10 10 10 10 10 10 5.79 v -10 -10 -10 -9.382 h -10 -10 -10 -10 -10 -10 -10 -10 -10 -10 -10 -10 -10 -10 -10 -10 -10 -10 -10 -10 -10 -10 -10 -5.79 v 10 10 10 9.382"
           id="path10"
           inkscape:connector-curvature="0"
           style="fill:none;stroke:#000000;stroke-width:1;stroke-linecap:butt;stroke-linejoin:round;stroke-opacity:1" />
        <path
           d="m 503.055,291.716 v -10 -10 -10 -10 -10 -9.486 h -10 -10 -10 -10 -10 -10 -10 -10 -10 -10 -10 -10 -10 -10 -10 -10 -10 -10 -10 -10 -10 -10 -10 -5.79 v 10 10 10 10 10 9.486 l 5.579,8.299 5.579,8.3 5.579,8.299 5.579,8.299 5.579,8.299 5.578,8.299 5.579,8.299 5.579,8.299 5.579,8.3 5.579,8.299 1.39,2.067 v 10 10 10 10 10 10 10 10 10 10 10 10 10 10 10 10 10 10 10 10 10 10 10 10 10 10 10 10 10 10 10 10 10 10 10 4.153 l 9.535,3.014 9.535,3.015 9.534,3.014 5.641,1.783 h 10 10 10 10 10 2.942 l 9.535,-3.014 9.535,-3.015 9.535,-3.014 5.64,-1.783 v -10 -10 -10 -10 -10 -10 -10 -10 -10 -10 -10 -10 -10 -10 -10 -10 -10 -10 -10 -10 -10 -10 -10 -10 -10 -10 -10 -10 -10 -10 -10 -10 -10 -10 -10 -4.153 l 5.579,-8.299 5.579,-8.299 5.579,-8.3 5.578,-8.299 5.579,-8.299 5.579,-8.299 5.579,-8.299 5.579,-8.299 5.579,-8.299 5.579,-8.3 1.39,-2.067"
           id="path12"
           inkscape:connector-curvature="0"
           style="fill:none;stroke:#000000;stroke-width:1;stroke-linecap:butt;stroke-linejoin:round;stroke-opacity:1" />
        <path
           d="m 387.49,438.68 -5.05,0.497 -4.857,1.473 -4.476,2.393 -3.923,3.22 -3.22,3.923 -2.392,4.476 -1.473,4.856 -0.167,9.999 -0.166,9.999 -0.165,9.925 0.175,9.998 0.175,9.999 0.148,8.447 1.473,4.856 2.392,4.476 3.22,3.923 3.923,3.22 4.476,2.392 4.857,1.474 5.05,0.497 5.051,-0.497 4.857,-1.474 4.476,-2.392 3.923,-3.22 3.22,-3.923 2.392,-4.476 1.473,-4.856 0.175,-9.999 0.175,-9.998 0.148,-8.447 -0.167,-9.999 -0.166,-9.998 -0.165,-9.926 -1.473,-4.856 -2.392,-4.476 -3.22,-3.923 -3.923,-3.22 -4.476,-2.393 -4.857,-1.473 -5.051,-0.497"
           id="path14"
           inkscape:connector-curvature="0"
           style="fill:none;stroke:#000000;stroke-width:1;stroke-linecap:butt;stroke-linejoin:round;stroke-opacity:1" />
      </g>
    </g>
  </g>
</svg>
